# xmcd
#
# Track frame offsets:
#	150
#	16325
#	35348
#	49814
#	69213
#	90668
#	108059
#
# Disc length: 1660 seconds
#
# Revision: 0
# Processed by: cddbd v1.5.2PL0 Copyright (c) Steve Scherf et al.
# Submitted via: dBpowerAMP V4.0
#
DISCID=49067a07
DTITLE=Arlenes - UK06
DYEAR=2006
DGENRE=Alt Country
TTITLE0=Monster
TTITLE1=Ghost
TTITLE2=Love will tear us apart
TTITLE3=Good to me
TTITLE4=Some times
TTITLE5=Springboard (BBC session)
TTITLE6=Coast is clear (BBC session)
EXTD=
EXTT0=
EXTT1=
EXTT2=
EXTT3=
EXTT4=
EXTT5=
EXTT6=
PLAYORDER=
